# xmcd CD database file
#
# Track frame offsets:
#	150
#	18430
#	45037
#	66972
#	95208
#	116339
#	131968
#	156151
#	185409
#
# Disc length: 2803 seconds
#
# Revision: 0
# Processed by: cddbd v1.5.1PL0 Copyright (c) Steve Scherf et al.
# Submitted via: CDex 1.51
#
DISCID=750af109
DTITLE=Chuck Leavell - Southscape
DYEAR=2005
DGENRE=Jazz
TTITLE0=Tomato Jam
TTITLE1=Savannah
TTITLE2=Pagan  Pigdance
TTITLE3=Jessica
TTITLE4=Altamaha
TTITLE5=Southscape
TTITLE6=Backburn
TTITLE7=Ashley
TTITLE8=Cherokee Wind
EXTD=YEAR: 2005
EXTT0=
EXTT1=
EXTT2=
EXTT3=
EXTT4=
EXTT5=
EXTT6=
EXTT7=
EXTT8=
PLAYORDER=
